<svg class="fig8" version="1.1" id="part_3" xmlns="http://www.w3.org/2000/svg" xmlns:xlink="http://www.w3.org/1999/xlink" x="0px" y="0px"
	 width="1000px" height="1000px" viewBox="0 0 1000 1000" enable-background="new 0 0 1000 1000" xml:space="preserve">


    <path class="stroke-1 bg" fill="none" stroke-miterlimit="10" d="M541.89,2.733v272.16
    c0,44.578-18.043,84.941-47.223,114.187L337.446,546.373c-29.181,29.244-47.224,69.607-47.224,114.186
    c0,89.287,72.381,161.666,161.668,161.666c89.286,0,161.665-72.379,161.665-161.666c0-73.199-122.229-158.688-122.229-158.688
    s-16.28-11.394-36.874-29.458"/>
    <path class="stroke-1 fg" fill="none" stroke-miterlimit="10" d="M541.89,2.733v272.16
    c0,44.578-18.043,84.941-47.223,114.187L337.446,546.373c-29.181,29.244-47.224,69.607-47.224,114.186
    c0,89.287,72.381,161.666,161.668,161.666c89.286,0,161.665-72.379,161.665-161.666c0-73.199-122.229-158.688-122.229-158.688
    s-16.28-11.394-36.874-29.458"/>


	<path class="stroke-2 bg" fill="none" stroke-miterlimit="10" d="M410.479,428.184
    c-22.037-26.126-39.978-56.11-39.978-84.486c0-89.286,72.379-161.666,161.665-161.666c89.287,0,161.668,72.38,161.668,161.666
    c0,44.578-18.043,84.941-47.223,114.187l-72.945,72.978"/>
    <path class="stroke-2 fg" fill="none" stroke-miterlimit="10" d="M410.479,428.184
    c-22.037-26.126-39.978-56.11-39.978-84.486c0-89.286,72.379-161.666,161.665-161.666c89.287,0,161.668,72.38,161.668,161.666
    c0,44.578-18.043,84.941-47.223,114.187l-72.945,72.978"/>


    <path class="stroke-3 bg" fill="none" stroke-miterlimit="10" d="M528.934,575.639l-39.293,39.311
    c-29.18,29.246-47.223,69.609-47.223,114.188L442.402,1001"/>
    <path class="stroke-3 fg" fill="none" stroke-miterlimit="10" d="M528.934,575.639l-39.293,39.311
    c-29.18,29.246-47.223,69.609-47.223,114.188L442.402,1001"
    />

</svg>
